PathFileType	4	(X/Y/Z)	D:\TRACE\spotREDO_2-26-24\spot_Both_Motion_1_6-v60.trc
DataRate	CameraRate	NumFrames	NumMarkers	Units	OrigDataRate	OrigDataStartFrame	OrigNumFrames
100.00	100.00	      24	9	mm	100.00	2626	      7000
Frame#	Time	front left toe			Front right toe			aft left toe			aft right toe			Arm			FL body			FR body			AL Body			AR Body			
		X1	Y1	Z1	X2	Y2	Z2	X3	Y3	Z3	X4	Y4	Z4	X5	Y5	Z5	X6	Y6	Z6	X7	Y7	Z7	X8	Y8	Z8	X9	Y9	Z9	

2626	26.250	-189.42558	32.28789	-445.46402	179.67732	46.86933	-523.04016	-186.09575	7.24549	159.15022	183.84792	22.34228	147.17249	-98.56580	742.63245	-780.24408	-155.05402	608.87036	-516.31927	0.20701	612.64001	-519.21185	-142.25464	561.48157	366.54391	-0.95113	565.08405	365.48361	
2627	26.260	-188.51402	32.29654	-445.45462	181.85518	47.88477	-522.69427	-185.21947	7.08583	159.13832	184.21100	22.01822	146.78654	-97.14259	745.30408	-777.34991	-153.07033	608.52863	-516.43433	1.80071	612.08191	-519.57935	-140.27339	561.61151	366.50070	1.24523	565.35468	365.42358	
2628	26.270	-187.48979	32.65147	-445.50970	181.74626	47.30769	-522.71625	-184.56877	7.21596	158.90422	185.46510	21.68875	146.84593	-95.66549	748.32910	-773.85938	-151.58844	608.67853	-516.61603	3.63274	611.85968	-519.74438	-138.22322	561.53027	366.20825	3.00502	564.91461	365.13434	
2629	26.280	-186.69557	32.70132	-445.28912	182.31085	46.99513	-522.94867	-183.61327	7.10611	158.89577	186.33174	21.32500	147.05357	-94.16116	750.87500	-770.60889	-149.71031	608.86255	-516.70300	4.89724	612.84576	-519.88770	-136.52448	561.06464	366.12369	4.86774	564.36383	364.85266	
2630	26.290	-185.47856	32.54568	-445.35666	183.41513	46.81592	-522.83899	-182.86121	7.04962	159.01003	187.44611	21.31412	147.11964	-92.45372	753.18915	-767.60547	-147.83876	609.39618	-516.52094	6.87865	613.16779	-519.46948	-134.76421	560.61810	366.19742	6.69132	563.68549	364.96500	
2631	26.300	-184.70468	33.08567	-445.40378	184.52705	46.96931	-522.63605	-181.78329	6.91650	159.11342	188.36211	21.29777	147.33623	-90.71281	754.94714	-764.67670	-145.87253	610.36798	-516.48285	9.26319	613.77551	-519.84711	-132.99960	560.09387	366.28421	8.48702	563.04333	365.33020	
2632	26.310	-183.75716	33.29685	-445.45059	185.31537	47.01064	-522.79333	-181.07953	6.78034	159.01268	189.04445	21.24108	147.45580	-89.52674	756.30701	-762.45197	-143.94873	611.18939	-515.90326	11.57727	614.37732	-519.10504	-131.28165	559.52362	366.51025	9.81238	562.17255	365.46823	
2633	26.320	-182.88232	33.50039	-445.47137	186.31770	47.14759	-522.58826	-180.37344	6.72699	159.03363	189.99435	21.02949	147.48109	-87.57012	756.50146	-760.52460	-141.69839	612.05176	-515.56311	13.31125	615.03888	-518.94025	-129.78961	559.01215	366.96283	11.53335	561.68878	365.94165	
2634	26.330	-181.80107	33.73854	-445.61084	187.34164	47.41943	-522.28302	-179.28209	6.76779	159.18175	190.75145	21.00063	147.61516	-86.20744	756.44849	-759.34845	-139.75133	612.78748	-514.96857	15.71898	615.71246	-518.40424	-128.26611	558.65619	367.41336	13.19168	561.17902	366.46240	
2635	26.340	-181.07628	34.17299	-445.54016	188.25450	47.36346	-521.98834	-178.81453	6.90080	159.15355	191.46362	20.99993	147.74240	-85.04465	755.92096	-758.55688	-137.07220	613.47961	-514.50336	18.15388	616.28149	-517.52747	-126.61357	558.45465	367.93610	14.66614	561.01465	367.11060	
2636	26.350	-180.30724	34.25457	-445.51907	188.91428	47.14019	-522.12000	-177.92036	7.20719	159.11108	192.41171	21.01537	147.89977	-83.96305	754.77704	-758.20392	-134.79204	614.06036	-513.76849	20.42940	616.72369	-516.79852	-124.86840	558.59229	368.54712	16.64422	560.76050	367.99265	
2637	26.360	-179.30515	34.19710	-445.51239	190.01016	46.93213	-522.15784	-176.95453	7.12577	159.02098	192.94673	20.96511	147.89322	-82.95099	753.80701	-758.40625	-132.86760	614.58661	-513.29663	22.58887	616.96893	-516.24963	-122.80503	558.50952	369.23715	18.18700	560.64697	368.73474	
2638	26.370	-178.41122	34.36687	-445.49292	191.11446	47.09431	-521.85834	-176.17757	7.10919	159.18733	193.97620	20.77083	148.00723	-82.63357	752.74591	-758.64948	-130.28854	614.61438	-512.54218	24.98838	617.08185	-515.52460	-121.13172	558.33734	369.83545	19.97685	560.66608	369.10226	
2639	26.380	-177.64682	34.61753	-445.49094	191.56538	46.81112	-521.88702	-175.46289	7.27666	159.37437	195.11751	20.76169	148.21880	-82.02691	751.76929	-759.08990	-128.08771	614.60449	-511.75580	27.52888	617.17029	-514.71759	-119.22797	558.31708	370.43774	22.49476	560.58960	369.98541	
2640	26.390	-177.13231	34.78405	-445.41513	192.58017	46.81812	-521.85168	-174.46950	7.45439	159.27678	195.45322	20.66207	148.14754	-81.60093	751.00397	-759.55042	-125.67928	614.49518	-511.22192	29.68585	617.12415	-513.96997	-117.15154	558.32190	371.24600	24.06080	560.66394	370.71689	
2641	26.400	-176.15311	34.74460	-445.33450	193.37048	46.83705	-521.51740	-173.69540	7.59911	159.30315	196.38072	20.64422	148.24323	-81.24796	750.68292	-760.03064	-123.87199	614.28522	-510.58636	31.64326	617.15265	-513.38983	-115.18054	558.32001	371.89670	26.05143	560.93604	371.36853	
2642	26.410	-175.24834	34.61538	-445.19263	194.15215	46.79126	-521.45612	-173.17537	7.80945	159.28337	197.22623	20.59739	148.23064	-81.57242	750.53027	-760.82471	-121.48406	613.94995	-509.97885	33.74875	616.93188	-512.63916	-112.90675	558.31873	372.48889	28.33030	560.87683	372.22510	
2643	26.420	-174.73892	34.63465	-445.18936	194.91318	46.82296	-521.48468	-172.33673	7.81238	159.41313	197.77118	20.52379	148.20563	-81.18598	750.45795	-761.34479	-119.27865	613.45770	-509.19440	35.74081	616.56635	-512.04492	-110.80333	557.90045	373.15979	30.44481	560.93726	372.64734	
2644	26.430	-174.08109	34.66780	-445.16968	195.48871	45.93060	-522.43970	-171.59471	7.86208	159.42760	198.92177	20.33790	148.50720	-81.02659	750.48547	-761.64172	-117.29836	612.84589	-508.46155	37.84906	616.19092	-511.48450	-108.31114	557.77100	373.93930	33.11290	560.70142	373.48679	
2645	26.440	-173.32256	34.72290	-445.10583	196.15544	46.30645	-521.76831	-170.81934	7.94107	159.30058	199.67056	20.13261	148.43968	-81.03720	750.63715	-761.99365	-115.15825	612.37335	-507.94855	40.20060	616.00214	-510.71451	-105.89874	557.45898	374.58313	35.62496	560.57434	374.09286	
2646	26.450	-172.50705	34.51251	-445.02026	196.83572	46.12943	-521.65192	-170.02187	7.91212	159.39285	200.16501	20.05597	148.30562	-81.04202	750.86603	-762.49811	-112.75164	612.13538	-507.20267	42.47760	615.87708	-510.00311	-103.43909	557.15393	375.32236	38.07438	560.26794	374.56177	
2647	26.460	-171.75862	34.55468	-445.02206	197.58472	46.07133	-521.53894	-169.35739	8.10403	159.71588	201.07733	20.23178	148.48805	-80.73622	751.01727	-762.76471	-110.75530	611.87482	-506.31845	44.23098	615.62646	-509.46634	-100.99299	556.86334	375.98993	40.53667	560.25452	375.55725	
2648	26.470	-171.35828	34.67682	-444.88599	198.07925	45.99887	-521.52740	-168.66068	8.32032	159.80249	201.95311	20.02541	148.56888	-80.26468	751.27844	-763.01990	-108.32699	611.44647	-505.44809	46.80353	615.57770	-508.68610	-98.53558	556.45258	376.68192	42.96278	560.01001	376.22488	
2649	26.480	-170.80106	35.10856	-444.83118	198.78221	45.67889	-521.61621	-167.80380	8.42170	159.68135	202.36446	19.56900	148.34915	-79.85889	751.84259	-763.27960	-105.96484	611.30701	-504.79379	48.91348	615.29156	-507.91620	-96.10150	556.18640	377.47394	45.20426	559.84491	377.03131	
